<svg xmlns="http://www.w3.org/2000/svg" version="1.1" xmlns:xlink="http://www.w3.org/1999/xlink" width="1500" height="129" viewBox="0 0 1500 129"><svg xml:space="preserve" width="1500" height="129" data-version="2" data-id="lg_tHvDsoFqgLdypkQ0ge" viewBox="0 0 571 129" x="0" y="0"><rect width="100%" height="100%" fill="transparent"></rect><rect width="525.832" height="155.813" x="-262.916" y="-77.907" fill="#d90c00" rx="0" ry="0" transform="translate(353.706 64.5)scale(.8056)"></rect><rect width="151.358" height="155.813" x="-75.679" y="-77.907" fill="#d90c00" rx="0" ry="0" transform="translate(66.464 64.5)scale(.8056)"></rect><path fill="#ffadd4" d="m66.336 43.042-.743 2.507 4.124 1.222 3.683 3.93 1.911-1.795-4.17-4.44zm-.928 25.865 1.137 4.448-4.836-1.95-.324 5.393-5.207-3.443-1.153 1.741 8.232 5.455.371-6.12 5.973 2.414-2.166-8.465z"></path><path fill="#ffadd4" d="m99.892 71.197.735-.743-1.285-1.284.124-.155-1.323-3.961-5.308-6.206-4.062-5.54-9.462-12.139-1.57-.913.827-.48-.526-.904-1.346.773-.433-.247.541-.31-.534-.905-1.044.611-1.323-.774-8.611-.177-4.898-.643-11.203-6.87-.48-.503-4.077-1.888-3.141 2.36-.774 1.547-.696.17-2.832 4.627.952 5.911.943.279 1.068.317-.054 2.36 2.012-1.787c.588.735 1.988 2.63 3.234 4.363l3.768 7.211-.372 1.393-1.044-.124-6.252-4.356-1.23-1.037.031-1.315-.774.696-2.7-2.274-4.99-.526-1.927 5.013.797 2.84-.201.123.58.875.263-.17 8.387 8.874.62 6.035-8.829 28.967 11.583-9.431 2.738 7.783 8.186-7.845 4.194 7.783 6.7-7.814 5.648 7.799 5.23-7.791 7.118 7.814 3.776-7.776 10.089 9.192-2.19-13.741-2.793-14.987h5.749l.642.704.743-.704-.681-.665.495-.635zM89.88 68.202l-12.04-3.975-.99 2.994 11.652 3.9 2.947 15.744.774 4.797-6.569-5.98-3.574 7.388-6.7-7.35-4.952 7.381-5.346-7.38-6.306 7.365-3.977-7.39-7.652 7.328-2.6-7.397-7.07 5.757L43.48 71.66l-.781-7.737-9.169-9.687-.371-1.315.696-1.78 1.633.163 3.992 3.358 7.064 4.928 4.534.565 1.377-5.23-4.433-8.488-.062-.085c-.008-.015-.913-1.269-1.818-2.499-1.935-2.63-2.267-3.071-3.026-3.126a65.516 65.516 0 0 1-2.19-.619l-.448-2.808 1.532-2.522 3.366-.797 2.398 1.029 1.246-1.099 10.298 6.321 5.74.75 7.97.17 4.178 2.438 9.052 11.606 4.077 5.563 5.022 5.833.549 1.617z"></path><circle r="1.01" fill="#ffadd4" transform="translate(50.104 42.214)scale(.7737)"></circle><circle r="1.01" fill="#ffadd4" transform="translate(52.727 45.007)scale(.7737)"></circle><circle r="1.01" fill="#ffadd4" transform="translate(51.42 48.318)scale(.7737)"></circle><g transform="translate(352.475 64.62)"><filter id="a" width="140%" height="140%" x="-20%" y="-20%"><feGaussianBlur in="SourceAlpha"></feGaussianBlur><feOffset result="oBlur"></feOffset><feFlood flood-color="#F75CFF" flood-opacity="1"></feFlood><feComposite in2="oBlur" operator="in"></feComposite><feMerge><feMergeNode></feMergeNode><feMergeNode in="SourceGraphic"></feMergeNode></feMerge></filter><g filter="url(#a)"><path fill="#fefbfa" d="M-143.975-6.28-156.605 29l-20.96-56.19h7.01l12.32 32.63q.67 1.69 1.09 3.23.42 1.54.91 3.66.48-2.12.93-3.66.46-1.54 1.06-3.23l12.45-34.44 12.38 34.44q.54 1.51 1.06 3.05.51 1.54.93 3.84.49-2.3.97-3.84t1.09-3.05l12.32-32.63h6.53L-127.425 29l-12.56-35.28q-.55-1.57-1.03-3.05-.48-1.48-.97-3.78-.48 2.3-.96 3.78-.49 1.48-1.03 3.05m70.2 34.56q-5.86 0-11.02-2.21-5.17-2.21-9.06-6.07-3.9-3.87-6.11-9-2.2-5.14-2.2-11t2.2-11q2.21-5.13 6.11-9 3.89-3.86 9.06-6.07 5.16-2.2 11.02-2.2 5.93 0 11.06 2.2 5.14 2.21 9.03 6.07 3.9 3.87 6.11 9 2.2 5.14 2.2 11t-2.2 11q-2.21 5.13-6.11 9-3.89 3.86-9.03 6.07-5.13 2.21-11.06 2.21m0-6.53q5.99 0 10.82-2.93t7.64-7.88q2.81-4.96 2.81-10.94 0-6.04-2.81-10.97-2.81-4.92-7.64-7.85-4.83-2.93-10.82-2.93-5.98 0-10.78 2.93-4.8 2.93-7.64 7.85-2.84 4.93-2.84 10.97 0 5.98 2.84 10.94 2.84 4.95 7.64 7.88 4.8 2.93 10.78 2.93m65.38 5.44h-25.74v-54.38h6.89v48.22h18.85zm17.4 0h-6.89v-54.38h26.82v6.17H9.005v11.6h18.12v6.16H9.005zm44.58 0h-15.22v-54.38h15.22q5.2 0 8.25 2.06 3.05 2.05 4.38 4.98 1.33 2.93 1.33 5.53 0 2.96-1.36 5.41-1.36 2.44-3.66 4.01 4.41 2 7.16 5.99 2.75 3.98 2.75 9.06 0 4.29-2.14 8.28-2.15 3.98-6.35 6.52-4.19 2.54-10.36 2.54m-8.33-29v22.84h7.85q4.47 0 7.19-1.76 2.72-1.75 3.99-4.41t1.27-5.25q0-2.54-1.21-5.2t-3.93-4.44q-2.72-1.78-7.31-1.78zm0-19.21v13.41h7.79q3.56 0 5.77-1.72 2.2-1.73 2.2-4.93 0-3.32-2.17-5.04-2.18-1.72-5.56-1.72zm83.01-6.17V29l-38.06-40.78v38.97h-6.53V-29l38.06 40.78v-38.97zm30.45 54.38h-15.23v-54.38h15.23q5.19 0 8.24 2.06 3.06 2.05 4.38 4.98 1.33 2.93 1.33 5.53 0 2.96-1.36 5.41-1.35 2.44-3.65 4.01 4.41 2 7.16 5.99 2.75 3.98 2.75 9.06 0 4.29-2.15 8.28-2.14 3.98-6.34 6.52-4.2 2.54-10.36 2.54m-8.34-29v22.84h7.85q4.48 0 7.19-1.76 2.72-1.75 3.99-4.41t1.27-5.25q0-2.54-1.21-5.2t-3.93-4.44q-2.71-1.78-7.31-1.78zm0-19.21v13.41h7.79q3.57 0 5.77-1.72 2.21-1.73 2.21-4.93 0-3.32-2.18-5.04-2.17-1.72-5.55-1.72z"></path></g></g></svg></svg>